<svg width="16" height="27" viewBox="0 0 16 27" fill="none" xmlns="http://www.w3.org/2000/svg">
<path fill-rule="evenodd" clip-rule="evenodd" d="M13.1179 13.0825C13.1179 16.7343 12.3325 20.4174 10.8048 23.5541C10.5656 24.0447 10.2678 24.5009 10.4961 25.1797C10.8937 26.3619 12.4206 26.4605 12.983 25.4038C14.7737 22.0393 15.8452 17.3262 15.8452 13.4631V12.6698C15.8452 10.2551 15.372 7.39698 14.7204 5.24832C14.3111 3.8979 13.5824 1.93065 12.904 0.717041C12.3269 -0.315148 10.829 -0.2354 10.4227 0.972159C10.1873 1.67137 10.5244 2.12114 10.7621 2.62231C12.2872 5.83717 13.1179 9.31396 13.1179 13.0825Z" fill="#ED3237"/>
<mask id="mask0_0_1" style="mask-type:luminance" maskUnits="userSpaceOnUse" x="5" y="2" width="6" height="22">
<path d="M5.53014 4.16548C5.53014 4.77436 5.96478 5.37304 6.1753 5.89764C6.95162 7.83049 7.41612 9.40013 7.58393 11.6214C7.8383 14.9897 7.26456 17.8606 6.04378 20.668C5.92586 20.939 5.76711 21.2051 5.66922 21.4787C5.39974 22.232 5.80301 22.8874 6.19684 23.1686C6.76755 23.5764 7.49889 23.4063 7.90708 23.0102C8.19054 22.7351 8.50387 21.9319 8.72043 21.4561C9.64755 19.4189 10.3747 16.1413 10.3747 13.5901V12.7333C10.3747 10.353 9.83086 7.84674 9.11275 5.8194C8.86104 5.10772 8.19131 3.4247 7.78312 3.09475C6.73657 2.24851 5.53014 3.09852 5.53014 4.16548Z" fill="white"/>
</mask>
<g mask="url(#mask0_0_1)">
<path fill-rule="evenodd" clip-rule="evenodd" d="M5.53014 2.75006H10.3747V23.4033H5.53014V2.75006Z" fill="#FEFEFE"/>
</g>
<path fill-rule="evenodd" clip-rule="evenodd" d="M4.87627 12.2004C4.77536 10.6787 4.48396 9.17714 3.99111 7.88001C3.77492 7.31119 3.49297 6.57305 3.18871 6.1229C2.86141 5.63837 2.05523 5.37985 1.38814 5.80164C0.932332 6.0904 0.535859 6.80096 0.859009 7.59201C1.16137 8.33242 1.33183 8.51497 1.60736 9.4383C2.48836 12.3924 2.35609 15.4364 1.07331 18.2284C0.937629 18.5243 0.759613 18.7858 0.742606 19.1759C0.725598 19.5682 0.86468 19.931 1.04005 20.1574C1.59526 20.8725 2.793 21.0256 3.39772 19.787C3.53492 19.5055 3.66531 19.2107 3.7923 18.9004C4.63287 16.8469 5.02745 14.4878 4.87627 12.2004Z" fill="#ED3237"/>
</svg>