<?xml version="1.0" encoding="UTF-8"?>
<!DOCTYPE svg PUBLIC "-//W3C//DTD SVG 1.1//EN" "http://www.w3.org/Graphics/SVG/1.1/DTD/svg11.dtd">
<!-- Creator: CorelDRAW -->
<svg xmlns="http://www.w3.org/2000/svg" xml:space="preserve" width="50mm" height="50mm" version="1.1" style="shape-rendering:geometricPrecision; text-rendering:geometricPrecision; image-rendering:optimizeQuality; fill-rule:evenodd; clip-rule:evenodd"
viewBox="0 0 5000 5000"
 xmlns:xlink="http://www.w3.org/1999/xlink"
 xmlns:xodm="http://www.corel.com/coreldraw/odm/2003">
 <defs>
  <style type="text/css">
   <![CDATA[
    .str0 {stroke:#ED3237;stroke-width:7.62;stroke-miterlimit:22.9256}
    .fil2 {fill:none}
    .fil1 {fill:#ED3237}
    .fil0 {fill:#ED3237;fill-rule:nonzero}
    .fil3 {fill:#FEFEFE}
   ]]>
  </style>
   <clipPath id="id0">
    <path d="M851.84 2422.39l2717.09 0 0 218.11 -2717.09 0 0 -218.11z"/>
   </clipPath>
   <clipPath id="id1">
    <path d="M4044.77 2484.83c0,96.62 -20.78,194.07 -61.2,277.06 -6.33,12.98 -14.21,25.05 -8.17,43.01 10.52,31.28 50.92,33.89 65.8,5.93 47.38,-89.02 75.73,-213.72 75.73,-315.93l0 -20.99c0,-63.89 -12.52,-139.51 -29.76,-196.36 -10.83,-35.73 -30.11,-87.78 -48.06,-119.89 -15.27,-27.31 -54.9,-25.2 -65.65,6.75 -6.23,18.5 2.69,30.4 8.98,43.66 40.35,85.06 62.33,177.05 62.33,276.76z"/>
   </clipPath>
    <clipPath id="id2">
     <path d="M4044.77 2484.83c0,96.62 -20.78,194.07 -61.2,277.06 -6.33,12.98 -14.21,25.05 -8.17,43.01 10.52,31.28 50.92,33.89 65.8,5.93 47.38,-89.02 75.73,-213.72 75.73,-315.93l0 -20.99c0,-63.89 -12.52,-139.51 -29.76,-196.36 -10.83,-35.73 -30.11,-87.78 -48.06,-119.89 -15.27,-27.31 -54.9,-25.2 -65.65,6.75 -6.23,18.5 2.69,30.4 8.98,43.66 40.35,85.06 62.33,177.05 62.33,276.76z"/>
    </clipPath>
    <clipPath id="id3">
     <path d="M4044.77 2484.83c0,96.62 -20.78,194.07 -61.2,277.06 -6.33,12.98 -14.21,25.05 -8.17,43.01 10.52,31.28 50.92,33.89 65.8,5.93 47.38,-89.02 75.73,-213.72 75.73,-315.93l0 -20.99c0,-63.89 -12.52,-139.51 -29.76,-196.36 -10.83,-35.73 -30.11,-87.78 -48.06,-119.89 -15.27,-27.31 -54.9,-25.2 -65.65,6.75 -6.23,18.5 2.69,30.4 8.98,43.66 40.35,85.06 62.33,177.05 62.33,276.76z"/>
    </clipPath>
   <clipPath id="id4">
    <path d="M3844.01 2248.9c0,16.11 11.5,31.95 17.07,45.83 20.54,51.14 32.83,92.67 37.27,151.44 6.73,89.12 -8.45,165.08 -40.75,239.36 -3.12,7.17 -7.32,14.21 -9.91,21.45 -7.13,19.93 3.54,37.27 13.96,44.71 15.1,10.79 34.45,6.29 45.25,-4.19 7.5,-7.28 15.79,-28.53 21.52,-41.12 24.53,-53.9 43.77,-140.62 43.77,-208.12l0 -22.67c0,-62.98 -14.39,-129.29 -33.39,-182.93 -6.66,-18.83 -24.38,-63.36 -35.18,-72.09 -27.69,-22.39 -59.61,0.1 -59.61,28.33z"/>
   </clipPath>
   <clipPath id="id5">
    <path d="M3844.01 2248.9c0,16.11 11.5,31.95 17.07,45.83 20.54,51.14 32.83,92.67 37.27,151.44 6.73,89.12 -8.45,165.08 -40.75,239.36 -3.12,7.17 -7.32,14.21 -9.91,21.45 -7.13,19.93 3.54,37.27 13.96,44.71 15.1,10.79 34.45,6.29 45.25,-4.19 7.5,-7.28 15.79,-28.53 21.52,-41.12 24.53,-53.9 43.77,-140.62 43.77,-208.12l0 -22.67c0,-62.98 -14.39,-129.29 -33.39,-182.93 -6.66,-18.83 -24.38,-63.36 -35.18,-72.09 -27.69,-22.39 -59.61,0.1 -59.61,28.33z"/>
   </clipPath>
   <clipPath id="id6">
    <path d="M3826.71 2461.49c-2.67,-40.26 -10.38,-79.99 -23.42,-114.31 -5.72,-15.05 -13.18,-34.58 -21.23,-46.49 -8.66,-12.82 -29.99,-19.66 -47.64,-8.5 -12.06,7.64 -22.55,26.44 -14,47.37 8,19.59 12.51,24.42 19.8,48.85 23.31,78.16 19.81,158.7 -14.13,232.57 -3.59,7.83 -8.3,14.75 -8.75,25.07 -0.45,10.38 3.23,19.98 7.87,25.97 14.69,18.92 46.38,22.97 62.38,-9.8 3.63,-7.45 7.08,-15.25 10.44,-23.46 22.24,-54.33 32.68,-116.75 28.68,-177.27z"/>
   </clipPath>
    <clipPath id="id7">
     <path d="M3826.71 2461.49c-2.67,-40.26 -10.38,-79.99 -23.42,-114.31 -5.72,-15.05 -13.18,-34.58 -21.23,-46.49 -8.66,-12.82 -29.99,-19.66 -47.64,-8.5 -12.06,7.64 -22.55,26.44 -14,47.37 8,19.59 12.51,24.42 19.8,48.85 23.31,78.16 19.81,158.7 -14.13,232.57 -3.59,7.83 -8.3,14.75 -8.75,25.07 -0.45,10.38 3.23,19.98 7.87,25.97 14.69,18.92 46.38,22.97 62.38,-9.8 3.63,-7.45 7.08,-15.25 10.44,-23.46 22.24,-54.33 32.68,-116.75 28.68,-177.27z"/>
    </clipPath>
    <clipPath id="id8">
     <path d="M3826.71 2461.49c-2.67,-40.26 -10.38,-79.99 -23.42,-114.31 -5.72,-15.05 -13.18,-34.58 -21.23,-46.49 -8.66,-12.82 -29.99,-19.66 -47.64,-8.5 -12.06,7.64 -22.55,26.44 -14,47.37 8,19.59 12.51,24.42 19.8,48.85 23.31,78.16 19.81,158.7 -14.13,232.57 -3.59,7.83 -8.3,14.75 -8.75,25.07 -0.45,10.38 3.23,19.98 7.87,25.97 14.69,18.92 46.38,22.97 62.38,-9.8 3.63,-7.45 7.08,-15.25 10.44,-23.46 22.24,-54.33 32.68,-116.75 28.68,-177.27z"/>
    </clipPath>
 </defs>
 <g id="Capa_x0020_1">
  <metadata id="CorelCorpID_0Corel-Layer"/>
  <path class="fil0 str0" d="M1226.8 2640.43l0 46.25c-34.28,0 -61.13,-2.98 -80.56,-8.94 -19.43,-5.96 -34.13,-13.05 -44.14,-21.28 -9.99,-8.22 -16.14,-16.54 -18.43,-24.97 -2.28,-8.43 -3.42,-14.9 -3.42,-19.43l0 -11.1 0 -197.33 -54.85 0 0 -43.78 54.85 0 0 -82.02 72.84 0 0 82.02 73.71 0 0 43.78 -73.71 0 0 192.4 0 5.55c0,3.7 0.72,7.71 2.14,12.03 1.43,4.31 4.73,8.53 9.87,12.64 5.14,4.11 12.42,7.5 21.84,10.17 9.43,2.67 21.87,4.01 37.29,4.01l2.57 0zm206.54 -280.58c34.28,0 61.13,2.98 80.55,8.94 19.43,5.96 34,13.05 43.7,21.28 9.72,8.22 15.72,16.54 18,24.97 2.29,8.43 3.43,14.9 3.43,19.43l0 15.41 0 0.62 0 13.57c0,6.98 -1.86,14.8 -5.57,23.43 -3.71,8.63 -12.42,17.88 -26.14,27.75 -6.28,4.93 -13.43,8.63 -21.42,11.1 -8,2.47 -15.14,4.32 -21.43,5.55 -7.42,1.64 -15.13,2.46 -23.14,2.46l-65.12 0c-14.86,0 -28,3.91 -39.43,11.72 -11.42,7.81 -17.13,17.47 -17.13,28.98l0 27.75c0,9.87 2.57,17.68 7.71,23.44 2.28,2.88 4.85,5.34 7.71,7.4 2.85,2.05 7.13,3.9 12.86,5.55 4.56,1.64 10.42,3.08 17.56,4.31 7.15,1.24 16.43,1.85 27.86,1.85 14.85,0 26.57,-1.13 35.13,-3.39 8.57,-2.26 14.58,-4.21 18,-5.86 7.43,-4.11 12.57,-9.04 15.42,-14.8 2.87,-5.75 4.28,-11.92 4.28,-18.5l72.85 0 0 14.8c0,11.1 -3.28,21.38 -9.85,30.84 -6.57,9.45 -16.72,17.67 -30.42,24.66 -9.72,4.94 -23.14,9.25 -40.28,12.95 -17.15,3.7 -38.85,5.55 -65.13,5.55 -19.43,0 -36.29,-1.13 -50.56,-3.39 -14.29,-2.26 -26.72,-5.14 -37.29,-8.63 -10.56,-3.5 -19.28,-7.5 -26.14,-12.03 -6.85,-4.52 -12.57,-9.04 -17.14,-13.56 -10.28,-10.69 -15.13,-23.02 -14.56,-37l0 -14.19 0 -27.75 0 -124.56 0 -0.62 0 -15.41c0,-4.94 1.14,-11.51 3.42,-19.74 2.29,-8.22 8.28,-16.44 17.99,-24.66 9.72,-8.23 24.3,-15.32 43.71,-21.28 19.43,-5.96 46.28,-8.94 80.57,-8.94zm72.83 90.03l0 -5.55c0,-3.7 -0.71,-7.71 -2.14,-12.02 -1.41,-4.32 -4.71,-8.43 -9.85,-12.34 -5.14,-3.9 -12.43,-7.19 -21.85,-9.86 -9.43,-2.67 -21.86,-4.01 -37.29,-4.01 -15.99,0 -28.99,1.34 -38.99,4.01 -9.99,2.67 -17.71,5.86 -23.14,9.56 -5.42,3.7 -8.99,7.7 -10.7,12.02 -1.73,4.32 -2.57,8.12 -2.57,11.41l0 6.78 0 0.62 0 4.93 0 51.8c1.14,-3.7 3.71,-6.68 7.71,-8.94 3.99,-2.26 8.56,-4.01 13.7,-5.24 5.14,-1.23 10.29,-2.06 15.43,-2.47 5.14,-0.41 9.14,-0.61 12.01,-0.61l48.85 0c13.13,0 24.55,-3.4 34.27,-10.18 9.71,-6.78 14.56,-14.9 14.56,-24.36l0 -4.93 0 -0.62zm359.95 -0.61c0,-11.93 -5,-22.1 -14.99,-30.53 -10.01,-8.43 -29.29,-12.64 -57.86,-12.64 -14.29,0 -26.14,1.13 -35.56,3.39 -9.43,2.26 -17,5.24 -22.71,8.94 -5.71,3.7 -9.72,7.71 -12,12.03 -2.29,4.31 -3.43,8.53 -3.43,12.64l0 11.72c0,4.93 1.28,9.25 3.85,12.95 2.57,3.7 5.57,6.98 9.01,9.86 3.43,2.88 7,5.04 10.71,6.48 3.71,1.44 6.71,2.57 8.99,3.39 2.3,0.41 8.01,1.85 17.15,4.32 9.13,2.46 19.85,5.24 32.13,8.32 12.29,3.08 25.01,6.27 38.14,9.56 13.15,3.29 24.85,6.17 35.13,8.63 20.57,5.35 36.43,14.39 47.57,27.13 11.15,12.75 16.71,26.93 16.71,42.55l0 28.99c0,7.4 -1.85,15.52 -5.56,24.36 -3.72,8.83 -11.01,16.95 -21.86,24.35 -10.85,7.4 -25.71,13.57 -44.57,18.5 -18.85,4.94 -43.42,7.4 -73.7,7.4 -30.28,0 -54.84,-2.46 -73.7,-7.4 -18.86,-4.93 -33.71,-11.1 -44.57,-18.5 -10.85,-7.4 -18.13,-15.52 -21.85,-24.35 -3.71,-8.84 -5.57,-16.96 -5.57,-24.36l0 -17.89 71.99 0c0,14.8 5.14,26.21 15.43,34.23 10.28,8.02 29.71,12.02 58.27,12.02 28,0 47.14,-3.8 57.43,-11.4 10.28,-7.61 15.42,-19.22 15.42,-34.85 0,-7.81 -2,-14.28 -6,-19.42 -4,-5.14 -8.56,-9.35 -13.71,-12.64 -6.29,-3.7 -13.14,-6.58 -20.56,-8.64 -17.15,-4.52 -33.15,-8.63 -48.01,-12.33 -13.13,-3.29 -25.85,-6.47 -38.13,-9.56 -12.29,-3.08 -21.28,-5.24 -26.99,-6.47 -5.71,-1.65 -12.29,-4.11 -19.72,-7.4 -7.42,-3.29 -14.57,-7.61 -21.42,-12.95 -6.86,-5.35 -12.57,-11.82 -17.15,-19.43 -4.57,-7.6 -6.85,-16.34 -6.85,-26.2l0 -29.6c0,-21.38 11.72,-39.16 35.13,-53.35 23.44,-14.18 60.28,-21.27 110.56,-21.27 25.71,0 47.71,1.95 66,5.86 18.28,3.9 33.41,9.25 45.42,16.03 11.99,6.78 20.71,14.7 26.14,23.74 5.42,9.05 8.13,18.71 8.13,28.99l0 14.8 -72.84 0zm179.11 237.41l0 -447.08 71.99 0 0 447.08 -71.99 0zm301.68 -326.83c50.28,0 87.14,7.09 110.56,21.27 23.43,14.19 35.13,31.97 35.13,53.35l0 29.6 0 135.04 0 17.89c0,7.4 -1.85,15.52 -5.56,24.36 -3.72,8.83 -11.01,16.95 -21.86,24.35 -10.85,7.4 -25.71,13.57 -44.57,18.5 -18.85,4.94 -43.42,7.4 -73.7,7.4 -30.28,0 -54.84,-2.46 -73.7,-7.4 -18.86,-4.93 -33.71,-11.1 -44.57,-18.5 -10.85,-7.4 -18.13,-15.52 -21.85,-24.35 -3.71,-8.84 -5.57,-16.96 -5.57,-24.36l0 -28.99c0,-15.62 5.57,-29.8 16.71,-42.55 11.14,-12.74 27,-21.78 47.57,-27.13 10.28,-2.46 22,-5.34 35.13,-8.63 13.15,-3.29 25.86,-6.48 38.14,-9.56 12.28,-3.08 23,-5.86 32.14,-8.32 9.15,-2.47 14.86,-3.91 17.14,-4.32 2.29,-0.82 5.28,-1.95 9,-3.39 3.71,-1.44 7.29,-3.6 10.72,-6.48 3.42,-2.88 6.42,-6.16 8.99,-9.86 2.57,-3.7 3.85,-8.02 3.85,-12.95l0 -11.72c0,-4.11 -1.14,-8.33 -3.42,-12.64 -2.29,-4.32 -6.28,-8.33 -11.99,-12.03 -5.73,-3.7 -13.29,-6.68 -22.73,-8.94 -9.42,-2.26 -21.27,-3.39 -35.56,-3.39 -28.56,0 -47.85,4.21 -57.84,12.64 -10.01,8.43 -15,18.6 -15,30.53l-72.85 0 0 -14.8c0,-10.28 2.71,-19.94 8.15,-28.99 5.42,-9.04 14.13,-16.96 26.14,-23.74 11.99,-6.78 27.13,-12.13 45.41,-16.03 18.28,-3.91 40.28,-5.86 65.99,-5.86zm73.7 163.42c-1.14,4.11 -3.99,7.19 -8.56,9.24 -4.57,2.06 -8.85,3.5 -12.86,4.32 -8.57,2.06 -17.86,4.42 -27.85,7.09 -10,2.68 -19.29,5.04 -27.85,7.09 -10.28,2.47 -20,4.94 -29.14,7.4 -6.85,2.06 -13.43,4.94 -19.71,8.64 -5.14,3.29 -9.87,7.5 -14.15,12.64 -4.28,5.14 -6.42,11.61 -6.42,19.42 0,15.63 5.15,27.24 15.43,34.85 10.28,7.6 29.42,11.4 57.41,11.4 28.57,0 48,-4 58.29,-12.02 10.28,-8.02 15.41,-19.43 15.41,-34.23l0 -75.84zm448.23 163.41l-72.86 0 0 -236.8 0 -5.55c0,-3.7 -0.7,-7.71 -2.14,-12.02 -1.41,-4.32 -4.71,-8.43 -9.85,-12.34 -5.14,-3.9 -12.42,-7.19 -21.85,-9.86 -9.43,-2.67 -21.86,-4.01 -37.28,-4.01 -16,0 -28.99,1.34 -39,4.01 -9.99,2.67 -17.71,5.86 -23.14,9.56 -5.42,3.7 -8.99,7.7 -10.7,12.02 -1.72,4.32 -2.57,8.12 -2.57,11.41l0 6.78 0 236.8 -72.85 0 0 -241.11 0 -11.1c0,-4.94 1.14,-11.51 3.43,-19.74 2.28,-8.22 8.42,-16.44 18.41,-24.66 10.01,-8.23 24.73,-15.32 44.14,-21.28 19.43,-5.96 46.28,-8.94 80.57,-8.94 34.28,0 61.13,2.98 80.55,8.94 19.43,5.96 34.01,13.05 43.71,21.28 9.71,8.22 15.71,16.54 17.99,24.97 2.3,8.43 3.44,14.9 3.44,19.43l0 6.16 0 246.05zm230.53 -326.83c34.29,0 61.14,2.98 80.55,8.94 19.43,5.96 34.01,13.05 43.71,21.28 9.71,8.22 15.72,16.54 18,24.97 2.29,8.43 3.43,14.9 3.43,19.43l0 15.41 0 0.62 0 13.57c0,6.98 -1.86,14.8 -5.57,23.43 -3.71,8.63 -12.43,17.88 -26.15,27.75 -6.28,4.93 -13.42,8.63 -21.41,11.1 -8.01,2.47 -15.15,4.32 -21.43,5.55 -7.42,1.64 -15.14,2.46 -23.14,2.46l-65.13 0c-14.85,0 -28,3.91 -39.42,11.72 -11.43,7.81 -17.14,17.47 -17.14,28.98l0 27.75c0,9.87 2.57,17.68 7.71,23.44 2.28,2.88 4.85,5.34 7.72,7.4 2.85,2.05 7.13,3.9 12.85,5.55 4.56,1.64 10.43,3.08 17.57,4.31 7.14,1.24 16.43,1.85 27.85,1.85 14.86,0 26.57,-1.13 35.13,-3.39 8.58,-2.26 14.58,-4.21 18,-5.86 7.44,-4.11 12.58,-9.04 15.43,-14.8 2.86,-5.75 4.28,-11.92 4.28,-18.5l72.85 0 0 14.8c0,11.1 -3.28,21.38 -9.85,30.84 -6.58,9.45 -16.72,17.67 -30.43,24.66 -9.71,4.94 -23.14,9.25 -40.27,12.95 -17.15,3.7 -38.86,5.55 -65.14,5.55 -19.43,0 -36.29,-1.13 -50.56,-3.39 -14.29,-2.26 -26.71,-5.14 -37.29,-8.63 -10.56,-3.5 -19.27,-7.5 -26.14,-12.03 -6.85,-4.52 -12.56,-9.04 -17.13,-13.56 -10.29,-10.69 -15.14,-23.02 -14.57,-37l0 -14.19 0 -27.75 0 -124.56 0 -0.62 0 -15.41c0,-4.94 1.14,-11.51 3.42,-19.74 2.29,-8.22 8.28,-16.44 18,-24.66 9.71,-8.23 24.29,-15.32 43.71,-21.28 19.42,-5.96 46.27,-8.94 80.56,-8.94zm72.84 90.03l0 -5.55c0,-3.7 -0.71,-7.71 -2.14,-12.02 -1.42,-4.32 -4.71,-8.43 -9.86,-12.34 -5.14,-3.9 -12.42,-7.19 -21.84,-9.86 -9.44,-2.67 -21.86,-4.01 -37.29,-4.01 -16,0 -28.99,1.34 -39,4.01 -9.99,2.67 -17.7,5.86 -23.14,9.56 -5.42,3.7 -8.99,7.7 -10.7,12.02 -1.72,4.32 -2.57,8.12 -2.57,11.41l0 6.78 0 0.62 0 4.93 0 51.8c1.14,-3.7 3.71,-6.68 7.71,-8.94 3.99,-2.26 8.57,-4.01 13.71,-5.24 5.14,-1.23 10.28,-2.06 15.42,-2.47 5.15,-0.41 9.15,-0.61 12.01,-0.61l48.85 0c13.13,0 24.56,-3.4 34.27,-10.18 9.72,-6.78 14.57,-14.9 14.57,-24.36l0 -4.93 0 -0.62zm330.82 190.55l0 46.25c-34.29,0 -61.14,-2.98 -80.57,-8.94 -19.43,-5.96 -34.13,-13.05 -44.14,-21.28 -9.99,-8.22 -16.13,-16.54 -18.42,-24.97 -2.28,-8.43 -3.42,-14.9 -3.42,-19.43l0 -11.1 0 -197.33 -54.86 0 0 -43.78 54.86 0 0 -82.02 72.83 0 0 82.02 73.72 0 0 43.78 -73.72 0 0 192.4 0 5.55c0,3.7 0.73,7.71 2.14,12.03 1.44,4.31 4.73,8.53 9.87,12.64 5.14,4.11 12.43,7.5 21.85,10.17 9.42,2.67 21.86,4.01 37.29,4.01l2.57 0z"/>
  <g style="clip-path:url(#id0)">

  </g>
  <path class="fil1" d="M4044.77 2484.83c0,96.62 -20.78,194.07 -61.2,277.06 -6.33,12.98 -14.21,25.05 -8.17,43.01 10.52,31.28 50.92,33.89 65.8,5.93 47.38,-89.02 75.73,-213.72 75.73,-315.93l0 -20.99c0,-63.89 -12.52,-139.51 -29.76,-196.36 -10.83,-35.73 -30.11,-87.78 -48.06,-119.89 -15.27,-27.31 -54.9,-25.2 -65.65,6.75 -6.23,18.5 2.69,30.4 8.98,43.66 40.35,85.06 62.33,177.05 62.33,276.76z"/>
  <g style="clip-path:url(#id1)">
   <g id="_1374760874368">
   </g>
   <g style="clip-path:url(#id2)">

   </g>
   <g style="clip-path:url(#id3)">
   </g>
  </g>
  <path class="fil2" d="M4044.77 2484.83c0,96.62 -20.78,194.07 -61.2,277.06 -6.33,12.98 -14.21,25.05 -8.17,43.01 10.52,31.28 50.92,33.89 65.8,5.93 47.38,-89.02 75.73,-213.72 75.73,-315.93l0 -20.99c0,-63.89 -12.52,-139.51 -29.76,-196.36 -10.83,-35.73 -30.11,-87.78 -48.06,-119.89 -15.27,-27.31 -54.9,-25.2 -65.65,6.75 -6.23,18.5 2.69,30.4 8.98,43.66 40.35,85.06 62.33,177.05 62.33,276.76z"/>
  <g style="clip-path:url(#id4)">
   <polygon class="fil3" points="3844.01,2211.45 3972.19,2211.45 3972.19,2757.9 3844.01,2757.9 "/>
  </g>
  <g style="clip-path:url(#id5)">
   <g id="_1374760875856">

   </g>
  </g>
  <path class="fil2" d="M3844.01 2248.9c0,16.11 11.5,31.95 17.07,45.83 20.54,51.14 32.83,92.67 37.27,151.44 6.73,89.12 -8.45,165.08 -40.75,239.36 -3.12,7.17 -7.32,14.21 -9.91,21.45 -7.13,19.93 3.54,37.27 13.96,44.71 15.1,10.79 34.45,6.29 45.25,-4.19 7.5,-7.28 15.79,-28.53 21.52,-41.12 24.53,-53.9 43.77,-140.62 43.77,-208.12l0 -22.67c0,-62.98 -14.39,-129.29 -33.39,-182.93 -6.66,-18.83 -24.38,-63.36 -35.18,-72.09 -27.69,-22.39 -59.61,0.1 -59.61,28.33z"/>
  <path class="fil1" d="M3826.71 2461.49c-2.67,-40.26 -10.38,-79.99 -23.42,-114.31 -5.72,-15.05 -13.18,-34.58 -21.23,-46.49 -8.66,-12.82 -29.99,-19.66 -47.64,-8.5 -12.06,7.64 -22.55,26.44 -14,47.37 8,19.59 12.51,24.42 19.8,48.85 23.31,78.16 19.81,158.7 -14.13,232.57 -3.59,7.83 -8.3,14.75 -8.75,25.07 -0.45,10.38 3.23,19.98 7.87,25.97 14.69,18.92 46.38,22.97 62.38,-9.8 3.63,-7.45 7.08,-15.25 10.44,-23.46 22.24,-54.33 32.68,-116.75 28.68,-177.27z"/>

  <path class="fil2" d="M3826.71 2461.49c-2.67,-40.26 -10.38,-79.99 -23.42,-114.31 -5.72,-15.05 -13.18,-34.58 -21.23,-46.49 -8.66,-12.82 -29.99,-19.66 -47.64,-8.5 -12.06,7.64 -22.55,26.44 -14,47.37 8,19.59 12.51,24.42 19.8,48.85 23.31,78.16 19.81,158.7 -14.13,232.57 -3.59,7.83 -8.3,14.75 -8.75,25.07 -0.45,10.38 3.23,19.98 7.87,25.97 14.69,18.92 46.38,22.97 62.38,-9.8 3.63,-7.45 7.08,-15.25 10.44,-23.46 22.24,-54.33 32.68,-116.75 28.68,-177.27z"/>
 </g>
</svg>